<mxfile host="Electron" modified="2023-07-19T15:09:00.702Z" agent="Mozilla/5.0 (X11; Linux x86_64) AppleWebKit/537.36 (KHTML, like Gecko) draw.io/21.6.1 Chrome/112.0.5615.204 Electron/24.6.1 Safari/537.36" etag="qdtDd-rJJYfn6PRU53YS" version="21.6.1" type="device">
  <diagram name="Page-1" id="XP3QIG-3y0HUhAg3DlyJ">
    <mxGraphModel dx="2261" dy="870" grid="1" gridSize="10" guides="1" tooltips="1" connect="1" arrows="1" fold="1" page="1" pageScale="1" pageWidth="827" pageHeight="1169" math="0" shadow="0">
      <root>
        <mxCell id="0" />
        <mxCell id="1" parent="0" />
        <mxCell id="dONPuQ44BoCAFCVM7U-1-1" value="" style="edgeStyle=orthogonalEdgeStyle;rounded=0;orthogonalLoop=1;jettySize=auto;html=1;fillColor=#6d8764;strokeColor=#000000;strokeWidth=2;" parent="1" source="dONPuQ44BoCAFCVM7U-1-2" target="dONPuQ44BoCAFCVM7U-1-16" edge="1">
          <mxGeometry relative="1" as="geometry" />
        </mxCell>
        <mxCell id="dONPuQ44BoCAFCVM7U-1-2" value="&lt;font face=&quot;Times New Roman&quot; style=&quot;font-size: 40px;&quot;&gt;Î£&lt;/font&gt;" style="ellipse;whiteSpace=wrap;html=1;fillColor=#d5e8d4;strokeColor=#82b366;" parent="1" vertex="1">
          <mxGeometry x="380" y="480" width="110" height="110" as="geometry" />
        </mxCell>
        <mxCell id="dONPuQ44BoCAFCVM7U-1-3" style="rounded=0;orthogonalLoop=1;jettySize=auto;html=1;entryX=0;entryY=0.5;entryDx=0;entryDy=0;exitX=1;exitY=0.5;exitDx=0;exitDy=0;endArrow=none;endFill=0;fillColor=#6d8764;strokeColor=#000000;fontColor=#000000;strokeWidth=2;" parent="1" source="dONPuQ44BoCAFCVM7U-1-5" target="dONPuQ44BoCAFCVM7U-1-2" edge="1">
          <mxGeometry relative="1" as="geometry" />
        </mxCell>
        <mxCell id="dONPuQ44BoCAFCVM7U-1-4" style="edgeStyle=orthogonalEdgeStyle;rounded=0;orthogonalLoop=1;jettySize=auto;html=1;endArrow=none;endFill=0;startArrow=classic;startFill=1;strokeWidth=2;" parent="1" source="dONPuQ44BoCAFCVM7U-1-5" edge="1">
          <mxGeometry relative="1" as="geometry">
            <mxPoint x="50" y="355" as="targetPoint" />
          </mxGeometry>
        </mxCell>
        <mxCell id="dONPuQ44BoCAFCVM7U-1-5" value="&lt;i&gt;w&lt;sub&gt;1&lt;/sub&gt;&lt;/i&gt;" style="ellipse;whiteSpace=wrap;html=1;fontFamily=Times New Roman;fontSize=30;fillColor=#d5e8d4;strokeColor=#82b366;" parent="1" vertex="1">
          <mxGeometry x="100" y="320" width="70" height="70" as="geometry" />
        </mxCell>
        <mxCell id="dONPuQ44BoCAFCVM7U-1-6" style="rounded=0;orthogonalLoop=1;jettySize=auto;html=1;entryX=0;entryY=0.5;entryDx=0;entryDy=0;exitX=1;exitY=0.5;exitDx=0;exitDy=0;endArrow=none;endFill=0;fillColor=#6d8764;strokeColor=#000000;fontColor=#000000;strokeWidth=2;" parent="1" source="dONPuQ44BoCAFCVM7U-1-7" target="dONPuQ44BoCAFCVM7U-1-2" edge="1">
          <mxGeometry relative="1" as="geometry" />
        </mxCell>
        <mxCell id="dONPuQ44BoCAFCVM7U-1-7" value="&lt;i&gt;w&lt;sub&gt;2&lt;/sub&gt;&lt;/i&gt;" style="ellipse;whiteSpace=wrap;html=1;fontFamily=Times New Roman;fontSize=30;fillColor=#d5e8d4;strokeColor=#82b366;" parent="1" vertex="1">
          <mxGeometry x="100" y="420" width="70" height="70" as="geometry" />
        </mxCell>
        <mxCell id="dONPuQ44BoCAFCVM7U-1-8" style="rounded=0;orthogonalLoop=1;jettySize=auto;html=1;entryX=0;entryY=0.5;entryDx=0;entryDy=0;exitX=1;exitY=0.5;exitDx=0;exitDy=0;endArrow=none;endFill=0;fillColor=#6d8764;strokeColor=#000000;fontColor=#000000;strokeWidth=2;" parent="1" source="dONPuQ44BoCAFCVM7U-1-9" target="dONPuQ44BoCAFCVM7U-1-2" edge="1">
          <mxGeometry relative="1" as="geometry" />
        </mxCell>
        <mxCell id="dONPuQ44BoCAFCVM7U-1-9" value="&lt;i&gt;w&lt;sub&gt;3&lt;/sub&gt;&lt;/i&gt;" style="ellipse;whiteSpace=wrap;html=1;fontFamily=Times New Roman;fontSize=30;fillColor=#d5e8d4;strokeColor=#82b366;" parent="1" vertex="1">
          <mxGeometry x="100" y="520" width="70" height="70" as="geometry" />
        </mxCell>
        <mxCell id="dONPuQ44BoCAFCVM7U-1-10" style="rounded=0;orthogonalLoop=1;jettySize=auto;html=1;entryX=0;entryY=0.5;entryDx=0;entryDy=0;exitX=1;exitY=0.5;exitDx=0;exitDy=0;endArrow=none;endFill=0;fillColor=#6d8764;strokeColor=#000000;fontColor=#000000;strokeWidth=2;" parent="1" source="dONPuQ44BoCAFCVM7U-1-11" target="dONPuQ44BoCAFCVM7U-1-2" edge="1">
          <mxGeometry relative="1" as="geometry" />
        </mxCell>
        <mxCell id="dONPuQ44BoCAFCVM7U-1-11" value="&lt;i&gt;w&lt;sub&gt;n&lt;/sub&gt;&lt;/i&gt;" style="ellipse;whiteSpace=wrap;html=1;fontFamily=Times New Roman;fontSize=30;fillColor=#d5e8d4;strokeColor=#82b366;" parent="1" vertex="1">
          <mxGeometry x="100" y="680" width="70" height="70" as="geometry" />
        </mxCell>
        <mxCell id="dONPuQ44BoCAFCVM7U-1-12" style="edgeStyle=orthogonalEdgeStyle;rounded=0;orthogonalLoop=1;jettySize=auto;html=1;endArrow=none;endFill=0;startArrow=classic;startFill=1;strokeWidth=2;" parent="1" edge="1">
          <mxGeometry relative="1" as="geometry">
            <mxPoint x="50" y="454.8" as="targetPoint" />
            <mxPoint x="100" y="454.8" as="sourcePoint" />
          </mxGeometry>
        </mxCell>
        <mxCell id="dONPuQ44BoCAFCVM7U-1-13" style="edgeStyle=orthogonalEdgeStyle;rounded=0;orthogonalLoop=1;jettySize=auto;html=1;endArrow=none;endFill=0;startArrow=classic;startFill=1;strokeWidth=2;" parent="1" edge="1">
          <mxGeometry relative="1" as="geometry">
            <mxPoint x="50" y="554.8" as="targetPoint" />
            <mxPoint x="100" y="554.8" as="sourcePoint" />
          </mxGeometry>
        </mxCell>
        <mxCell id="dONPuQ44BoCAFCVM7U-1-14" style="edgeStyle=orthogonalEdgeStyle;rounded=0;orthogonalLoop=1;jettySize=auto;html=1;endArrow=none;endFill=0;startArrow=classic;startFill=1;strokeWidth=2;" parent="1" edge="1">
          <mxGeometry relative="1" as="geometry">
            <mxPoint x="50" y="714.8" as="targetPoint" />
            <mxPoint x="100" y="714.8" as="sourcePoint" />
          </mxGeometry>
        </mxCell>
        <mxCell id="dONPuQ44BoCAFCVM7U-1-15" value="" style="edgeStyle=orthogonalEdgeStyle;rounded=0;orthogonalLoop=1;jettySize=auto;html=1;strokeColor=#000000;strokeWidth=2;" parent="1" source="dONPuQ44BoCAFCVM7U-1-16" edge="1">
          <mxGeometry relative="1" as="geometry">
            <mxPoint x="700" y="535" as="targetPoint" />
          </mxGeometry>
        </mxCell>
        <mxCell id="dONPuQ44BoCAFCVM7U-1-16" value="&lt;font style=&quot;font-size: 30px;&quot; face=&quot;Times New Roman&quot;&gt;&lt;i&gt;g&lt;/i&gt;(.)&lt;/font&gt;" style="ellipse;whiteSpace=wrap;html=1;fillColor=#d5e8d4;strokeColor=#82b366;" parent="1" vertex="1">
          <mxGeometry x="560" y="500" width="70" height="70" as="geometry" />
        </mxCell>
        <mxCell id="dONPuQ44BoCAFCVM7U-1-17" value="&lt;font face=&quot;Times New Roman&quot; style=&quot;font-size: 30px;&quot;&gt;&lt;i style=&quot;font-size: 30px;&quot;&gt;x&lt;sub&gt;1&lt;/sub&gt;&lt;/i&gt;&lt;/font&gt;" style="text;html=1;strokeColor=none;fillColor=none;align=center;verticalAlign=middle;whiteSpace=wrap;rounded=0;fontSize=30;" parent="1" vertex="1">
          <mxGeometry x="-50" y="310" width="136" height="80" as="geometry" />
        </mxCell>
        <mxCell id="dONPuQ44BoCAFCVM7U-1-18" value="&lt;font face=&quot;Times New Roman&quot; style=&quot;font-size: 30px;&quot;&gt;&lt;i style=&quot;font-size: 30px;&quot;&gt;x&lt;sub style=&quot;font-size: 30px;&quot;&gt;2&lt;/sub&gt;&lt;/i&gt;&lt;/font&gt;" style="text;html=1;strokeColor=none;fillColor=none;align=center;verticalAlign=middle;whiteSpace=wrap;rounded=0;fontSize=30;" parent="1" vertex="1">
          <mxGeometry x="-50" y="410" width="136" height="80" as="geometry" />
        </mxCell>
        <mxCell id="dONPuQ44BoCAFCVM7U-1-19" value="&lt;font face=&quot;Times New Roman&quot; style=&quot;font-size: 30px;&quot;&gt;&lt;i style=&quot;font-size: 30px;&quot;&gt;x&lt;sub&gt;3&lt;/sub&gt;&lt;/i&gt;&lt;/font&gt;" style="text;html=1;strokeColor=none;fillColor=none;align=center;verticalAlign=middle;whiteSpace=wrap;rounded=0;fontSize=30;" parent="1" vertex="1">
          <mxGeometry x="-50" y="510" width="136" height="80" as="geometry" />
        </mxCell>
        <mxCell id="dONPuQ44BoCAFCVM7U-1-20" value="&lt;font face=&quot;Times New Roman&quot; style=&quot;font-size: 30px;&quot;&gt;&lt;i style=&quot;font-size: 30px;&quot;&gt;x&lt;sub&gt;n&lt;/sub&gt;&lt;/i&gt;&lt;/font&gt;" style="text;html=1;strokeColor=none;fillColor=none;align=center;verticalAlign=middle;whiteSpace=wrap;rounded=0;fontSize=30;" parent="1" vertex="1">
          <mxGeometry x="-50" y="670" width="136" height="80" as="geometry" />
        </mxCell>
        <mxCell id="dONPuQ44BoCAFCVM7U-1-21" value="inputs" style="text;html=1;strokeColor=none;fillColor=none;align=center;verticalAlign=middle;whiteSpace=wrap;rounded=0;fontSize=23;fontStyle=1" parent="1" vertex="1">
          <mxGeometry x="-12" y="260" width="60" height="30" as="geometry" />
        </mxCell>
        <mxCell id="dONPuQ44BoCAFCVM7U-1-22" value="weights" style="text;html=1;strokeColor=none;fillColor=none;align=center;verticalAlign=middle;whiteSpace=wrap;rounded=0;fontSize=23;fontStyle=1" parent="1" vertex="1">
          <mxGeometry x="105" y="260" width="60" height="30" as="geometry" />
        </mxCell>
        <mxCell id="dONPuQ44BoCAFCVM7U-1-23" value="summation" style="text;html=1;strokeColor=none;fillColor=none;align=center;verticalAlign=middle;whiteSpace=wrap;rounded=0;fontSize=23;fontStyle=1" parent="1" vertex="1">
          <mxGeometry x="405" y="400" width="60" height="30" as="geometry" />
        </mxCell>
        <mxCell id="dONPuQ44BoCAFCVM7U-1-24" value="activation function" style="text;html=1;strokeColor=none;fillColor=none;align=center;verticalAlign=middle;whiteSpace=wrap;rounded=0;fontSize=23;fontStyle=1" parent="1" vertex="1">
          <mxGeometry x="550" y="410" width="90" height="30" as="geometry" />
        </mxCell>
        <mxCell id="dONPuQ44BoCAFCVM7U-1-25" style="edgeStyle=orthogonalEdgeStyle;rounded=0;orthogonalLoop=1;jettySize=auto;html=1;strokeWidth=2;" parent="1" source="dONPuQ44BoCAFCVM7U-1-26" target="dONPuQ44BoCAFCVM7U-1-2" edge="1">
          <mxGeometry relative="1" as="geometry" />
        </mxCell>
        <mxCell id="dONPuQ44BoCAFCVM7U-1-26" value="&lt;i&gt;b&lt;/i&gt;" style="ellipse;whiteSpace=wrap;html=1;fontFamily=Times New Roman;fontSize=30;fillColor=#d5e8d4;strokeColor=#82b366;" parent="1" vertex="1">
          <mxGeometry x="400" y="680" width="70" height="70" as="geometry" />
        </mxCell>
        <mxCell id="dONPuQ44BoCAFCVM7U-1-27" value="&lt;font face=&quot;Times New Roman&quot;&gt;&lt;i&gt;Å·&lt;/i&gt;&lt;/font&gt;" style="text;html=1;strokeColor=none;fillColor=none;align=center;verticalAlign=middle;whiteSpace=wrap;rounded=0;fontSize=30;" parent="1" vertex="1">
          <mxGeometry x="670" y="495" width="136" height="80" as="geometry" />
        </mxCell>
        <mxCell id="dONPuQ44BoCAFCVM7U-1-28" value="&lt;font style=&quot;font-size: 40px;&quot;&gt;...&lt;/font&gt;" style="text;html=1;strokeColor=none;fillColor=none;align=center;verticalAlign=middle;whiteSpace=wrap;rounded=0;rotation=90;" parent="1" vertex="1">
          <mxGeometry x="120" y="620" width="60" height="30" as="geometry" />
        </mxCell>
      </root>
    </mxGraphModel>
  </diagram>
</mxfile>
